<?xml version="1.0" standalone="no"?>
<!DOCTYPE svg PUBLIC "-//W3C//DTD SVG 20010904//EN"
 "http://www.w3.org/TR/2001/REC-SVG-20010904/DTD/svg10.dtd">
<svg version="1.0" xmlns="http://www.w3.org/2000/svg"
 width="127.000000pt" height="126.000000pt" viewBox="0 0 127.000000 126.000000"
 preserveAspectRatio="xMidYMid meet">

<g transform="translate(0.000000,126.000000) scale(0.100000,-0.100000)"
fill="#000000" stroke="none">
<path d="M44 1216 l-34 -34 0 -556 0 -556 29 -32 29 -33 551 -3 c488 -2 555
-1 582 13 59 31 59 32 59 612 0 483 -2 531 -18 563 -9 19 -28 40 -42 47 -19
10 -155 13 -573 13 l-549 0 -34 -34z m1130 -62 c3 -9 6 -249 6 -534 0 -425 -2
-520 -14 -529 -9 -8 -160 -10 -542 -9 l-529 3 -3 530 c-1 292 0 536 3 543 3 9
120 12 539 12 478 0 534 -2 540 -16z"/>
<path d="M575 751 c-76 -34 -105 -118 -65 -188 40 -71 118 -95 188 -59 51 26
74 71 69 134 -4 59 -30 95 -84 118 -42 18 -60 17 -108 -5z"/>
</g>
</svg>
