<?xml version="1.0" standalone="no"?>
<!DOCTYPE svg PUBLIC "-//W3C//DTD SVG 20010904//EN"
 "http://www.w3.org/TR/2001/REC-SVG-20010904/DTD/svg10.dtd">
<svg version="1.0" xmlns="http://www.w3.org/2000/svg"
 width="126.000000pt" height="125.000000pt" viewBox="0 0 126.000000 125.000000"
 preserveAspectRatio="xMidYMid meet">

<g transform="translate(0.000000,125.000000) scale(0.100000,-0.100000)"
fill="#000000" stroke="none">
<path d="M65 1238 c-11 -6 -28 -20 -37 -32 -16 -19 -18 -65 -18 -582 l0 -560
31 -30 30 -29 560 0 561 0 29 33 29 32 0 558 c0 513 -2 559 -18 578 -9 12 -27
27 -39 33 -30 15 -1100 15 -1128 -1z m1100 -613 l0 -540 -535 0 -535 0 -3 530
c-1 292 0 536 3 543 3 10 116 12 537 10 l533 -3 0 -540z"/>
<path d="M799 987 c-148 -99 -23 -317 138 -240 98 46 97 207 -2 249 -49 20
-97 17 -136 -9z"/>
<path d="M313 501 c-41 -26 -63 -69 -63 -122 0 -154 210 -190 265 -45 21 55 8
109 -35 151 -40 38 -119 46 -167 16z"/>
</g>
</svg>
