<?xml version="1.0" standalone="no"?>
<!DOCTYPE svg PUBLIC "-//W3C//DTD SVG 20010904//EN"
 "http://www.w3.org/TR/2001/REC-SVG-20010904/DTD/svg10.dtd">
<svg version="1.0" xmlns="http://www.w3.org/2000/svg"
 width="126.000000pt" height="125.000000pt" viewBox="0 0 126.000000 125.000000"
 preserveAspectRatio="xMidYMid meet">

<g transform="translate(0.000000,125.000000) scale(0.100000,-0.100000)"
fill="#000000" stroke="none">
<path d="M60 1237 c-14 -7 -33 -28 -42 -47 -16 -32 -18 -80 -18 -563 0 -580 0
-581 59 -612 27 -14 94 -15 581 -13 l550 3 27 28 28 27 3 561 2 561 -34 34
-34 34 -549 0 c-418 0 -554 -3 -573 -13z m1105 -612 l0 -540 -529 -3 c-382 -1
-533 1 -542 9 -12 9 -14 104 -14 529 0 285 3 526 6 534 6 15 60 16 543 14
l536 -3 0 -540z"/>
<path d="M820 1003 c-24 -9 -61 -46 -76 -75 -20 -38 -17 -87 6 -126 50 -82
151 -95 218 -28 34 34 37 41 37 96 0 55 -3 62 -37 96 -30 30 -44 37 -85 40
-26 2 -55 1 -63 -3z"/>
<path d="M575 756 c-17 -7 -44 -28 -59 -47 -25 -30 -28 -39 -24 -92 4 -48 9
-63 35 -88 58 -59 147 -56 202 6 41 47 48 91 22 149 -16 37 -29 51 -63 66 -50
23 -72 24 -113 6z"/>
<path d="M330 513 c-28 -10 -70 -56 -81 -90 -33 -100 66 -204 168 -178 15 3
44 23 65 44 34 34 38 44 38 87 0 58 -26 106 -69 129 -29 15 -91 19 -121 8z"/>
</g>
</svg>
