<?xml version="1.0" standalone="no"?>
<!DOCTYPE svg PUBLIC "-//W3C//DTD SVG 20010904//EN"
 "http://www.w3.org/TR/2001/REC-SVG-20010904/DTD/svg10.dtd">
<svg version="1.0" xmlns="http://www.w3.org/2000/svg"
 width="125.000000pt" height="125.000000pt" viewBox="0 0 125.000000 125.000000"
 preserveAspectRatio="xMidYMid meet">

<g transform="translate(0.000000,125.000000) scale(0.100000,-0.100000)"
fill="#000000" stroke="none">
<path d="M64 1240 c-12 -4 -31 -21 -43 -36 -21 -27 -21 -30 -21 -581 l0 -555
34 -34 34 -34 548 0 c419 0 555 3 574 13 14 7 33 28 42 47 16 32 18 80 18 563
0 579 0 581 -59 611 -26 14 -98 16 -568 15 -296 0 -548 -4 -559 -9z m1094 -82
c14 -14 18 -1044 4 -1066 -7 -10 -122 -12 -543 -10 l-534 3 -3 530 c-1 292 0
536 3 543 6 17 1055 18 1073 0z"/>
<path d="M285 1063 c-40 -11 -74 -44 -91 -88 -22 -59 -8 -110 41 -154 29 -25
44 -31 84 -31 143 0 196 166 80 252 -26 20 -81 30 -114 21z"/>
<path d="M849 1047 c-21 -14 -41 -41 -53 -70 -20 -47 -20 -47 0 -93 26 -65 62
-89 129 -89 67 0 103 24 129 89 20 46 20 46 0 93 -25 60 -71 93 -129 93 -27 0
-54 -8 -76 -23z"/>
<path d="M875 456 c-50 -22 -77 -60 -83 -114 -8 -91 48 -152 142 -152 43 0 53
4 87 38 42 43 54 76 45 126 -17 88 -110 138 -191 102z"/>
<path d="M242 435 c-40 -33 -56 -76 -49 -131 15 -133 196 -164 257 -44 25 49
25 81 1 128 -25 49 -67 72 -129 72 -39 0 -57 -6 -80 -25z"/>
</g>
</svg>
