<?xml version="1.0" standalone="no"?>
<!DOCTYPE svg PUBLIC "-//W3C//DTD SVG 20010904//EN"
 "http://www.w3.org/TR/2001/REC-SVG-20010904/DTD/svg10.dtd">
<svg version="1.0" xmlns="http://www.w3.org/2000/svg"
 width="125.000000pt" height="125.000000pt" viewBox="0 0 125.000000 125.000000"
 preserveAspectRatio="xMidYMid meet">

<g transform="translate(0.000000,125.000000) scale(0.100000,-0.100000)"
fill="#000000" stroke="none">
<path d="M64 1240 c-12 -4 -31 -21 -43 -36 -21 -27 -21 -30 -21 -581 l0 -555
34 -34 34 -34 548 0 c419 0 555 3 574 13 14 7 33 28 42 47 16 32 18 80 18 563
0 579 0 581 -59 611 -26 14 -98 16 -568 15 -296 0 -548 -4 -559 -9z m1094 -82
c14 -14 18 -1044 4 -1066 -7 -10 -122 -12 -543 -10 l-534 3 -3 530 c-1 292 0
536 3 543 6 17 1055 18 1073 0z"/>
<path d="M262 1050 c-34 -15 -47 -29 -63 -65 -27 -62 -18 -108 33 -159 37 -38
39 -38 99 -34 56 4 65 8 95 41 29 32 34 44 34 88 0 65 -23 104 -75 129 -51 25
-69 25 -123 0z"/>
<path d="M853 1050 c-41 -25 -63 -68 -63 -122 0 -137 171 -189 251 -76 28 39
31 113 5 152 -41 63 -131 84 -193 46z"/>
<path d="M539 727 c-43 -29 -59 -60 -59 -121 0 -43 4 -53 38 -86 50 -50 94
-59 156 -31 38 16 51 29 67 67 28 62 19 106 -31 156 -33 34 -43 38 -87 38 -36
0 -60 -7 -84 -23z"/>
<path d="M292 459 c-136 -28 -135 -233 1 -270 112 -30 212 90 162 195 -29 60
-94 90 -163 75z"/>
<path d="M870 453 c-132 -69 -89 -263 59 -263 176 0 189 255 14 276 -25 3 -50
-1 -73 -13z"/>
</g>
</svg>
