<?xml version="1.0" standalone="no"?>
<!DOCTYPE svg PUBLIC "-//W3C//DTD SVG 20010904//EN"
 "http://www.w3.org/TR/2001/REC-SVG-20010904/DTD/svg10.dtd">
<svg version="1.0" xmlns="http://www.w3.org/2000/svg"
 width="125.000000pt" height="125.000000pt" viewBox="0 0 125.000000 125.000000"
 preserveAspectRatio="xMidYMid meet">

<g transform="translate(0.000000,125.000000) scale(0.100000,-0.100000)"
fill="#000000" stroke="none">
<path d="M65 1241 c-11 -5 -29 -19 -40 -31 -20 -22 -20 -36 -20 -587 l0 -565
33 -29 32 -29 545 0 c329 0 554 4 569 10 14 5 35 24 46 42 19 32 20 51 20 571
0 590 1 580 -60 612 -25 13 -105 15 -567 14 -296 0 -547 -4 -558 -8z m1094
-85 c8 -9 10 -160 9 -542 l-3 -529 -540 0 -540 0 -3 530 c-1 292 0 536 3 543
7 19 1058 18 1074 -2z"/>
<path d="M273 1094 c-65 -32 -93 -126 -58 -194 38 -74 154 -93 215 -35 119
114 -10 301 -157 229z"/>
<path d="M832 1090 c-117 -72 -80 -245 55 -257 93 -8 158 57 150 150 -9 101
-120 159 -205 107z"/>
<path d="M297 755 c-72 -25 -102 -71 -95 -147 12 -118 149 -166 233 -82 44 43
53 90 31 149 -27 70 -100 105 -169 80z"/>
<path d="M855 755 c-136 -48 -118 -246 25 -270 80 -14 160 55 160 139 0 97
-93 163 -185 131z"/>
<path d="M269 399 c-47 -27 -69 -66 -69 -121 0 -88 63 -144 152 -136 36 4 57
13 78 33 122 117 -16 308 -161 224z"/>
<path d="M832 400 c-51 -31 -74 -76 -69 -133 12 -134 196 -174 259 -56 66 122
-72 260 -190 189z"/>
</g>
</svg>
